
<?xml version="1.0" standalone="no"?>
<!DOCTYPE svg PUBLIC "-//W3C//DTD SVG 20010904//EN"
 "http://www.w3.org/TR/2001/REC-SVG-20010904/DTD/svg10.dtd">
<svg version="1.0" xmlns="http://www.w3.org/2000/svg"
 viewBox="0 0 854.000000 541.000000"
 preserveAspectRatio="xMidYMid meet">

<g transform="translate(-400.000000,841.000000) scale(0.100000,-0.100000)"
fill="#fff" stroke="none">
<path d="M7865 10468 c-164 -12 -441 -53 -610 -89 -1165 -254 -2181 -974
-2826 -2001 -113 -180 -277 -506 -356 -708 -188 -477 -286 -950 -309 -1485 -6
-141 -5 -162 10 -174 37 -31 42 -11 54 217 24 449 95 827 229 1217 545 1587
1940 2727 3598 2939 263 34 409 36 2696 36 2020 0 2288 2 2299 15 10 12 10 18
0 30 -11 13 -282 15 -2339 14 -1279 -1 -2380 -6 -2446 -11z"/>
<path d="M8015 9620 c-1785 -102 -3226 -1494 -3385 -3270 -13 -148 -13 -492 0
-640 92 -1021 619 -1956 1450 -2572 491 -364 1054 -590 1680 -675 189 -25 718
-25 899 0 805 114 1491 446 2055 997 594 580 954 1307 1063 2145 25 197 25
653 0 850 -89 688 -340 1284 -768 1825 -107 136 -413 442 -554 554 -544 434
-1202 704 -1874 770 -198 20 -398 25 -566 16z m675 -88 c266 -40 490 -96 713
-176 1229 -446 2113 -1532 2301 -2826 51 -353 45 -764 -18 -1115 -152 -846
-605 -1608 -1278 -2146 -628 -502 -1391 -769 -2195 -769 -231 0 -369 11 -583
46 -1326 218 -2427 1193 -2809 2487 -91 308 -131 576 -138 927 -9 437 47 810
184 1210 441 1296 1593 2218 2966 2375 184 21 679 13 857 -13z"/>
<path d="M7480 7630 l0 -1000 30 0 30 0 0 390 0 390 298 0 c347 1 516 11 627
40 243 62 406 209 460 416 19 75 19 243 0 317 -52 201 -212 349 -441 407 -123
32 -257 40 -640 40 l-364 0 0 -1000z m965 912 c286 -78 436 -259 434 -522 -1
-250 -125 -414 -379 -502 -112 -39 -226 -48 -602 -48 l-358 0 0 551 0 551 413
-4 c385 -4 417 -6 492 -26z"/>
<path d="M7472 4433 l3 -998 30 0 30 0 3 286 2 286 278 270 278 271 434 -559
c421 -541 436 -559 468 -559 19 0 32 4 30 10 -1 5 -203 267 -447 581 -431 554
-443 571 -425 588 10 10 190 184 399 386 209 202 396 383 415 401 l35 34 -45
0 -45 -1 -685 -669 -685 -670 -3 670 -2 670 -35 0 -35 0 2 -997z"/>
<path d="M12544 8356 c-28 -28 -34 -42 -34 -76 0 -75 46 -124 115 -124 71 0
115 47 115 125 0 33 -6 47 -34 75 -29 29 -41 34 -81 34 -40 0 -52 -5 -81 -34z"/>
<path d="M12600 6041 c-5 -11 -10 -73 -10 -138 0 -363 -79 -822 -212 -1233
-127 -393 -352 -840 -598 -1185 -244 -341 -586 -693 -929 -954 -558 -424
-1207 -706 -1896 -825 -372 -64 -206 -60 -2813 -63 -2087 -3 -2374 -5 -2379
-18 -3 -9 0 -22 7 -30 12 -14 275 -15 2394 -12 1729 3 2406 7 2471 15 218 28
329 46 465 73 1826 373 3238 1867 3509 3714 34 232 59 639 40 661 -16 20 -37
17 -49 -5z"/>
<path d="M3712 3866 c-32 -30 -37 -40 -37 -79 0 -56 28 -96 78 -116 47 -17 82
-8 124 34 75 75 18 195 -92 195 -26 0 -45 -9 -73 -34z"/>
</g>
</svg>
